<?xml version="1.0" encoding="UTF-8" standalone="no"?>
<!-- Generator: Adobe Illustrator 21.0.2, SVG Export Plug-In . SVG Version: 6.00 Build 0)  -->

<svg
   version="1.1"
   x="0px"
   y="0px"
   viewBox="0 0 15.764 15.579"
   style="enable-background:new 0 0 15.764 15.579;"
   xml:space="preserve"
   id="svg35"
   sodipodi:docname="logo-inverted.svg"
   inkscape:version="1.1.2 (b8e25be833, 2022-02-05)"
   xmlns:inkscape="http://www.inkscape.org/namespaces/inkscape"
   xmlns:sodipodi="http://sodipodi.sourceforge.net/DTD/sodipodi-0.dtd"
   xmlns="http://www.w3.org/2000/svg"
   xmlns:svg="http://www.w3.org/2000/svg"><defs
   id="defs39" /><sodipodi:namedview
   id="namedview37"
   pagecolor="#505050"
   bordercolor="#ffffff"
   borderopacity="1"
   inkscape:pageshadow="0"
   inkscape:pageopacity="0"
   inkscape:pagecheckerboard="1"
   showgrid="false"
   inkscape:zoom="37.614738"
   inkscape:cx="7.8825486"
   inkscape:cy="3.5358481"
   inkscape:window-width="1440"
   inkscape:window-height="837"
   inkscape:window-x="-8"
   inkscape:window-y="-8"
   inkscape:window-maximized="1"
   inkscape:current-layer="svg35" />
<g
   id="Knudsen_x5F_Creamery_x5F_Co">
	<path
   d="M0.013,0.001c2.463,0.003,4.926,0.005,7.388,0.002C7.405,2.436,7.405,4.868,7.403,7.3c-1.67,0.009-3.34,0.001-5.009,0.004   C1.597,7.297,0.8,7.33,0.002,7.315c-0.003-1.396,0-2.792-0.001-4.188C-0.005,2.085,0.022,1.043,0.013,0.001z"
   id="path25" />
	<path
   d="M8.35,0.004C10.822,0,13.293-0.003,15.764,0.005c-1.294,1.293-2.605,2.568-3.899,3.862   C10.686,5.012,9.531,6.183,8.35,7.326C8.345,4.885,8.344,2.445,8.35,0.004z"
   id="path27" />
	<path
   d="M0.002,8.264C2.467,8.287,4.934,8.269,7.4,8.274c0.005,2.435-0.003,4.869,0.005,7.304   c-2.464-0.005-4.928-0.007-7.392,0.001C0.006,13.141,0.026,10.702,0.002,8.264z"
   id="path29" />
	<path
   d="M8.354,8.254c1.52,1.498,3.04,2.996,4.545,4.509c0.369,0.307,0.689,0.666,1.033,0.999c0.361,0.333,0.703,0.687,1.046,1.038   c0.268,0.248,0.525,0.509,0.78,0.771c-2.47,0.011-4.941,0.005-7.411,0.006C8.354,13.137,8.344,10.695,8.354,8.254z"
   id="path31" />
</g>
<g
   id="Layer_1">
</g>
<path
   style="fill:#ffffff;stroke-width:0.0265853"
   d="M 0.01367029,3.6730965 0.01457284,0.02658532 H 3.6916363 7.3686998 l 0.018082,2.23346378 c 0.00994,1.2284051 0.00996,2.8614086 2.65e-5,3.6288969 l -0.01804,1.3954328 -2.6608491,2.66e-5 c -1.463467,2.08e-5 -3.118567,0.00795 -3.6780001,0.017614 L 0.01276775,7.3195964 0.0136703,3.6730853 Z"
   id="path726" /><path
   style="fill:#ffffff;stroke-width:0.0265853"
   d="m 0.01348178,11.934335 -2.13e-6,-3.6530065 3.67532765,0.0091 c 2.02143,0.00501 3.6773004,0.010989 3.6797117,0.013293 0.00241,0.0023 0.00839,1.6342026 0.013293,3.6264425 l 0.00891,3.622253 -3.2458099,-3e-6 c -1.7851954,-2e-6 -3.44507355,0.0079 -3.68861807,0.01746 l -0.44280821,0.01746 z"
   id="path765" /><path
   style="fill:#ffffff;stroke-width:0.0265853"
   d="M 8.3610845,11.920912 V 8.2894093 L 9.0722419,8.9857394 C 9.7346653,9.6343516 11.44147,11.321679 14.457427,14.309471 l 1.2545,1.242784 -3.675421,8e-5 -3.6754215,8e-5 z"
   id="path804" /><path
   style="fill:#ffffff;stroke-width:0.0265853"
   d="M 8.3610845,3.6653006 V 0.03530267 L 10.401508,0.02202564 c 1.122233,-0.0073024 2.775209,-0.0062729 3.673279,0.0022877 L 15.707643,0.03987799 12.413205,3.2954684 C 10.601263,5.0860432 8.9482878,6.7185129 8.7399253,6.9231787 L 8.3610845,7.2952988 Z"
   id="path843" /></svg>
